<!-- Created with qrencode 4.1.1 (https://fukuchi.org/works/qrencode/index.html) -->
<svg width="4.34cm" height="4.34cm" viewBox="0 0 41 41" preserveAspectRatio="none" version="1.1" xmlns="http://www.w3.org/2000/svg">
	<g id="QRcode">
		<rect x="0" y="0" width="41" height="41" fill="#ffffff"/>
		<path style="stroke:#000000" transform="translate(4,4.5)" d="M0,0h7M9,0h2M16,0h1M19,0h4M26,0h7M0,1h1M6,1h1M9,1h1M11,1h4M19,1h2M22,1h1M24,1h1M26,1h1M32,1h1M0,2h1M2,2h3M6,2h1M8,2h1M10,2h1M13,2h1M15,2h3M19,2h5M26,2h1M28,2h3M32,2h1M0,3h1M2,3h3M6,3h1M8,3h2M13,3h2M18,3h4M24,3h1M26,3h1M28,3h3M32,3h1M0,4h1M2,4h3M6,4h1M9,4h1M11,4h1M13,4h1M16,4h3M22,4h2M26,4h1M28,4h3M32,4h1M0,5h1M6,5h1M10,5h5M16,5h1M18,5h3M22,5h1M24,5h1M26,5h1M32,5h1M0,6h7M8,6h1M10,6h1M12,6h1M14,6h1M16,6h1M18,6h1M20,6h1M22,6h1M24,6h1M26,6h7M9,7h4M14,7h2M17,7h1M19,7h2M23,7h1M3,8h2M6,8h2M9,8h6M16,8h2M19,8h2M23,8h1M29,8h2M2,9h2M5,9h1M7,9h3M12,9h2M16,9h1M19,9h2M22,9h2M25,9h1M28,9h1M1,10h1M3,10h1M5,10h2M8,10h2M13,10h2M16,10h2M19,10h3M23,10h1M29,10h4M0,11h2M3,11h2M7,11h2M11,11h1M13,11h1M16,11h1M20,11h1M24,11h1M28,11h3M0,12h1M6,12h2M11,12h1M13,12h4M18,12h1M21,12h3M25,12h2M32,12h1M0,13h1M2,13h2M8,13h2M11,13h4M16,13h1M18,13h1M20,13h5M27,13h1M31,13h1M2,14h1M5,14h2M11,14h1M13,14h1M17,14h2M22,14h1M25,14h1M28,14h1M1,15h5M9,15h2M12,15h2M15,15h1M23,15h1M26,15h6M0,16h1M3,16h4M8,16h1M11,16h2M14,16h3M20,16h1M22,16h2M25,16h2M28,16h1M31,16h1M0,17h1M2,17h4M8,17h1M12,17h4M18,17h1M20,17h1M26,17h4M32,17h1M2,18h2M6,18h1M9,18h5M15,18h1M17,18h1M20,18h6M27,18h1M29,18h1M32,18h1M0,19h2M3,19h1M7,19h2M11,19h1M19,19h1M23,19h4M30,19h2M0,20h1M6,20h4M11,20h2M14,20h1M17,20h2M20,20h1M24,20h2M29,20h1M32,20h1M0,21h2M8,21h1M11,21h1M14,21h2M17,21h4M24,21h2M28,21h3M0,22h1M2,22h2M6,22h2M9,22h2M12,22h1M16,22h1M18,22h2M22,22h3M26,22h1M28,22h5M0,23h1M2,23h2M8,23h1M12,23h2M15,23h1M19,23h1M24,23h1M26,23h1M28,23h1M30,23h1M0,24h2M6,24h1M8,24h1M10,24h1M12,24h1M14,24h1M17,24h1M23,24h6M31,24h1M8,25h1M10,25h1M13,25h1M15,25h1M18,25h4M24,25h1M28,25h1M30,25h1M0,26h7M8,26h2M11,26h2M16,26h1M19,26h2M23,26h2M26,26h1M28,26h2M31,26h1M0,27h1M6,27h1M9,27h3M13,27h3M18,27h2M21,27h4M28,27h5M0,28h1M2,28h3M6,28h1M8,28h1M10,28h1M17,28h1M20,28h9M32,28h1M0,29h1M2,29h3M6,29h1M8,29h4M13,29h4M20,29h1M22,29h1M25,29h1M29,29h1M31,29h1M0,30h1M2,30h3M6,30h1M9,30h1M15,30h1M17,30h4M23,30h2M28,30h5M0,31h1M6,31h1M13,31h1M16,31h3M20,31h2M23,31h1M25,31h2M30,31h3M0,32h7M10,32h4M18,32h1M22,32h1M24,32h1M26,32h2M29,32h1"/>
	</g>
</svg>
